<svg width="62" height="62" viewBox="0 0 62 62" fill="none" xmlns="http://www.w3.org/2000/svg">
<path fill-rule="evenodd" clip-rule="evenodd" d="M31 56.1875C35.4218 56.194 39.7666 55.0309 43.5938 52.8163V44.5625C43.5938 42.2501 42.6752 40.0325 41.0401 38.3974C39.405 36.7623 37.1874 35.8438 34.875 35.8438H27.125C24.8126 35.8438 22.595 36.7623 20.9599 38.3974C19.3248 40.0325 18.4062 42.2501 18.4062 44.5625V52.8163C22.2334 55.0309 26.5782 56.194 31 56.1875ZM49.4062 44.5625V48.1934C52.757 44.6063 54.9866 40.1184 55.8209 35.2812C56.6553 30.444 56.0581 25.4685 54.1027 20.9662C52.1474 16.4639 48.9191 12.631 44.8146 9.93877C40.7102 7.24654 35.9086 5.81227 31 5.81227C26.0914 5.81227 21.2898 7.24654 17.1854 9.93877C13.0809 12.631 9.85262 16.4639 7.89725 20.9662C5.94188 25.4685 5.34468 30.444 6.17905 35.2812C7.01343 40.1184 9.24302 44.6063 12.5938 48.1934V44.5625C12.5937 41.5667 13.5192 38.6439 15.2435 36.1941C16.9678 33.7442 19.4068 31.8869 22.227 30.876C20.7638 29.1929 19.8155 27.1245 19.4954 24.9174C19.1753 22.7103 19.4968 20.4577 20.4215 18.4283C21.3463 16.3989 22.8353 14.6783 24.711 13.4718C26.5867 12.2653 28.7698 11.6237 31 11.6237C33.2302 11.6237 35.4133 12.2653 37.289 13.4718C39.1647 14.6783 40.6537 16.3989 41.5785 18.4283C42.5032 20.4577 42.8247 22.7103 42.5046 24.9174C42.1845 27.1245 41.2363 29.1929 39.773 30.876C42.5932 31.8869 45.0322 33.7442 46.7565 36.1941C48.4808 38.6439 49.4063 41.5667 49.4062 44.5625ZM31 62C39.2217 62 47.1067 58.7339 52.9203 52.9203C58.7339 47.1067 62 39.2217 62 31C62 22.7783 58.7339 14.8933 52.9203 9.07969C47.1067 3.26606 39.2217 0 31 0C22.7783 0 14.8933 3.26606 9.07969 9.07969C3.26606 14.8933 0 22.7783 0 31C0 39.2217 3.26606 47.1067 9.07969 52.9203C14.8933 58.7339 22.7783 62 31 62ZM36.8125 23.25C36.8125 24.7916 36.2001 26.27 35.1101 27.3601C34.02 28.4501 32.5416 29.0625 31 29.0625C29.4584 29.0625 27.98 28.4501 26.8899 27.3601C25.7999 26.27 25.1875 24.7916 25.1875 23.25C25.1875 21.7084 25.7999 20.23 26.8899 19.1399C27.98 18.0499 29.4584 17.4375 31 17.4375C32.5416 17.4375 34.02 18.0499 35.1101 19.1399C36.2001 20.23 36.8125 21.7084 36.8125 23.25Z" fill="#BE7A74"/>
</svg>
